<svg xmlns="http://www.w3.org/2000/svg" viewBox="0 0 100 100">
  <g id="Layer_2" data-name="Layer 2">
    <g id="Layer_1-2" data-name="Layer 1">
      <path d="M44,3h2v2H44Z"/>
      <path d="M48,3h2v2H48Z"/>
      <path d="M52,3h2v2H52Z"/>
      <path d="M38,15.19h2v2H38Z"/>
      <path d="M42,15.19h2v2H42Z"/>
      <path d="M46,15.19h2v2H46Z"/>
      <path d="M91,0H43a3,3,0,0,0-3,3v9.11H37a3,3,0,0,0-3,3V53.66a3,3,0,0,0,3,3h2a1,1,0,0,0,0-2H37a1,1,0,0,1-1-1V20.25H86V53.66a1,1,0,0,1-1,1H63a1,1,0,0,0,0,2H85a3,3,0,0,0,3-3h0V44.55h3a3,3,0,0,0,3-3V3A3,3,0,0,0,91,0ZM36,18.22v-3a1,1,0,0,1,1-1H85a1,1,0,0,1,1,1v3ZM92,41.51a1,1,0,0,1-1,1H88V15.19a3,3,0,0,0-3-3H42V8.1H92ZM42,6.07V3a1,1,0,0,1,1-1H91a1,1,0,0,1,1,1v3Z"/>
      <path d="M48,22.27H76v2H48Z"/>
      <path d="M44,30.37h2v2H44Z"/>
      <path d="M48,26.32H76v2H48Z"/>
      <path d="M44,34.42h2v2H44Z"/>
      <path d="M44,22.27h2v2H44Z"/>
      <path d="M44,26.32h2v2H44Z"/>
      <path d="M51,45.56a4.05,4.05,0,1,0,4,4A4,4,0,0,0,51,45.56Zm0,6.07a2,2,0,1,1,2-2A2,2,0,0,1,51,51.63Z"/>
      <path d="M82.2,35.06,79.37,32.2a1,1,0,0,0-.71-.3,1,1,0,0,0-.7.3l-1.83,1.85L76,34V31.39a1,1,0,0,0-1-1H71a1,1,0,0,0-1,1V34l-.13,0L68.05,32.2a.85.85,0,0,0-.71-.3,1,1,0,0,0-.71.29L63.8,35.06a1,1,0,0,0,0,1.43l1.83,1.85a.69.69,0,0,1,0,.13H63a1,1,0,0,0-1,1v4.05a1,1,0,0,0,1,1h2.58l.06.13L63.8,46.52a1,1,0,0,0,0,1.44h0l2.83,2.86a1,1,0,0,0,1.41,0L69.87,49,70,49v2.61a1,1,0,0,0,1,1h4a1,1,0,0,0,1-1V49l.12-.05L78,50.82a1,1,0,0,0,1.41,0L82.19,48a1,1,0,0,0,0-1.44h0l-1.83-1.84.06-.13H83a1,1,0,0,0,1-1v-4a1,1,0,0,0-1-1H80.42a.61.61,0,0,1,0-.12L82.2,36.5a1,1,0,0,0,0-1.44ZM82,40.5v2H79.71a1,1,0,0,0-1,.72,5.53,5.53,0,0,1-.47,1.16,1,1,0,0,0-.12.49,1,1,0,0,0,.3.72l1.62,1.63-1.42,1.43L77,47a1,1,0,0,0-1.19-.17,5.37,5.37,0,0,1-1.14.47,1,1,0,0,0-.71,1v2.32H72V48.3a1,1,0,0,0-.71-1,5.37,5.37,0,0,1-1.14-.47A1,1,0,0,0,69,47l-1.62,1.64-1.42-1.43,1.62-1.63a1,1,0,0,0,.3-.73,1,1,0,0,0-.12-.48,6.87,6.87,0,0,1-.47-1.16,1,1,0,0,0-1-.72H64v-2h2.29a1,1,0,0,0,1-.72,5.53,5.53,0,0,1,.47-1.16,1,1,0,0,0-.17-1.2l-1.63-1.64,1.42-1.43L69,36a1,1,0,0,0,1.2.17,5.6,5.6,0,0,1,1.14-.47,1,1,0,0,0,.71-1V32.4h2v2.32a1,1,0,0,0,.71,1,5.37,5.37,0,0,1,1.14.47,1,1,0,0,0,1.2-.17l1.61-1.64,1.42,1.43-1.63,1.64a1,1,0,0,0-.17,1.2,5.53,5.53,0,0,1,.47,1.16,1,1,0,0,0,1,.72Z"/>
      <path d="M48,30.37H62v2H48Z"/>
      <path d="M48,34.42H60v2H48Z"/>
      <path d="M73,37.46a4.05,4.05,0,1,0,4,4A4,4,0,0,0,73,37.46Zm0,6.08a2,2,0,1,1,2-2A2,2,0,0,1,73,43.54Z"/>
      <path d="M62,47.58a1,1,0,0,0-1-1H58.42l-.05-.12L60.2,44.6a1,1,0,0,0,0-1.44L57.37,40.3a1,1,0,0,0-1.42,0l-1.82,1.85-.13,0V39.49a1,1,0,0,0-1-1H49a1,1,0,0,0-1,1V42.1l-.13,0L46.05,40.3a1,1,0,0,0-.71-.3,1,1,0,0,0-.71.29L41.8,43.16a1,1,0,0,0,0,1.44l1.83,1.85-.05.12H41a1,1,0,0,0-1,1v4.05a1,1,0,0,0,1,1h2.58l.05.13L41.8,54.62a1,1,0,0,0,0,1.44h0l2.83,2.86a1,1,0,0,0,1.41,0l1.83-1.85.13,0v2.61a1,1,0,0,0,1,1h4a1,1,0,0,0,1-1V57.12l.12,0L56,58.92a1,1,0,0,0,1.41,0l2.83-2.86a1,1,0,0,0,0-1.44h0l-1.83-1.84.06-.13H61a1,1,0,0,0,1-1Zm-2,3H57.71a1,1,0,0,0-1,.72,5.53,5.53,0,0,1-.47,1.16,1,1,0,0,0-.12.49,1.06,1.06,0,0,0,.29.72l1.63,1.63-1.42,1.43L55,55.13A1,1,0,0,0,53.85,55a5.37,5.37,0,0,1-1.14.47,1,1,0,0,0-.71,1v2.32H50V56.4a1,1,0,0,0-.71-1A5.37,5.37,0,0,1,48.15,55a1,1,0,0,0-1.19.17l-1.62,1.64-1.42-1.43,1.62-1.63a1.06,1.06,0,0,0,.3-.73,1,1,0,0,0-.12-.48,5.53,5.53,0,0,1-.47-1.16,1,1,0,0,0-1-.72H42v-2h2.29a1,1,0,0,0,1-.72,5.53,5.53,0,0,1,.47-1.16,1,1,0,0,0-.17-1.2l-1.63-1.64,1.42-1.43L47,44.09a1,1,0,0,0,1.2.17,5.6,5.6,0,0,1,1.14-.47,1,1,0,0,0,.71-1V40.5h2v2.32a1,1,0,0,0,.71,1,5.37,5.37,0,0,1,1.14.47,1,1,0,0,0,1.2-.17l1.61-1.64,1.42,1.43-1.62,1.64a1,1,0,0,0-.17,1.2,6.87,6.87,0,0,1,.47,1.16,1,1,0,0,0,1,.72H60Z"/>
    </g>
    <g id="Layer_4" data-name="Layer 4">
      <path d="M10.26,97.26H1.43A1.43,1.43,0,0,1,0,95.82V54.09a1.43,1.43,0,0,1,1.43-1.44h8.83a7.36,7.36,0,0,1,7.31,7.4V89.86A7.36,7.36,0,0,1,10.26,97.26Zm-7.4-2.89h7.4a4.48,4.48,0,0,0,4.45-4.51V60.05a4.49,4.49,0,0,0-4.45-4.51H2.86Z"/>
      <path d="M61.52,81.32H36.75a1.45,1.45,0,0,1,0-2.89H61.52a4,4,0,0,0,0-7.9H48.45a1.4,1.4,0,0,1-1.08-.5,19.57,19.57,0,0,0-14.81-6.79H16.14a1.45,1.45,0,0,1,0-2.9H32.56a22.42,22.42,0,0,1,16.52,7.29H61.51a6.85,6.85,0,0,1,0,13.69Z"/>
      <path d="M49.74,100a28.39,28.39,0,0,1-10.38-2L15.63,88.72a1.45,1.45,0,0,1-.81-1.87A1.41,1.41,0,0,1,16.66,86h0L40.4,95.34a25.55,25.55,0,0,0,21.44-1.28L96.77,75.33a11.86,11.86,0,0,0-12.33-2.6L65.8,79.63A1.42,1.42,0,0,1,64,78.77a1.46,1.46,0,0,1,.85-1.86h0L83.46,70A14.71,14.71,0,0,1,99,73.48l.35.35a2.36,2.36,0,0,1,0,3.29,2.39,2.39,0,0,1-.55.41L63.18,96.62A28.45,28.45,0,0,1,49.74,100Z"/>
    </g>
  </g>
</svg>
